<?xml version="1.0" ?>
<!-- Uploaded to: SVG Repo, www.svgrepo.com, Generator: SVG Repo Mixer Tools -->
<svg width="800px" height="800px" viewBox="0 0 2050 2050" xmlns="http://www.w3.org/2000/svg">
<defs>
<style>.cls-1{fill:#ffffff;}.cls-2{fill:#ffc500;}.cls-3{fill:#ff9f1e;}.cls-4{fill:#ffe059;}.cls-5{fill:#00305f;}.cls-6{fill:#ea1700;}</style>
</defs>
<title/>
<g data-name="Layer 1" id="Layer_1">
<rect class="cls-1" height="2040" width="2040" x="5" y="5"/>
</g>
<g data-name="Layer 3" id="Layer_3">
<circle class="cls-2" cx="1025" cy="1025" r="613.7"/>
<path class="cls-3" d="M1068.5,1551.8c-339,0-613.7-274.8-613.7-613.7a613.5,613.5,0,0,1,44.4-229.8A610.7,610.7,0,0,0,411.3,1025c0,338.9,274.8,613.7,613.7,613.7,257.7,0,478.3-158.8,569.2-383.9C1486.8,1432.8,1291.5,1551.8,1068.5,1551.8Z"/>
<path class="cls-4" d="M1025,411.3A610.4,610.4,0,0,0,659.9,531.7a706.9,706.9,0,0,1,453.2-18.9,27.8,27.8,0,0,0-3.3,5.1c-18.2,33.9,18.9,89.1,82.7,123.3s130.4,34.6,148.6.8a38.6,38.6,0,0,0,3.7-10.5c165.2,128,271.9,328.1,272.9,553.1a613.3,613.3,0,0,0,21-159.6C1638.7,686.1,1363.9,411.3,1025,411.3Z"/>
<ellipse class="cls-4" cx="1339.4" cy="698.8" rx="30.8" ry="52.8" transform="translate(396.9 1879.5) rotate(-79)"/>
<ellipse class="cls-4" cx="1235.1" cy="718.7" rx="17.2" ry="25" transform="translate(-4.9 1429) rotate(-60)"/>
<ellipse class="cls-5" cx="793.2" cy="930.8" rx="94.9" ry="60.2" transform="translate(-171.1 1682.9) rotate(-87.5)"/>
<circle class="cls-1" cx="826.5" cy="932.2" r="16.6"/>
<ellipse class="cls-5" cx="1256.8" cy="930.8" rx="60.2" ry="94.9" transform="translate(-39.2 55.3) rotate(-2.5)"/>
<circle class="cls-1" cx="1223.5" cy="932.2" r="16.6"/>
<path class="cls-5" d="M874.3,1124.8h301.4a47.8,47.8,0,0,1,47.8,47.8v0A198.5,198.5,0,0,1,1025,1371.2h0a198.5,198.5,0,0,1-198.5-198.5v0a47.8,47.8,0,0,1,47.8-47.8Z"/>
<path class="cls-6" d="M929.7,1346.8a197.9,197.9,0,0,0,95.3,24.4h0a197.9,197.9,0,0,0,95.3-24.4c-5.3-62.3-46-98.8-95.3-98.8S935,1284.5,929.7,1346.8Z"/>
</g>
</svg>